<?xml version="1.0" standalone="no"?>
<!DOCTYPE svg PUBLIC "-//W3C//DTD SVG 20010904//EN"
 "http://www.w3.org/TR/2001/REC-SVG-20010904/DTD/svg10.dtd">
<svg version="1.0" 
  xmlns="http://www.w3.org/2000/svg" width="700.000000pt" height="700.000000pt" viewBox="0 0 700.000000 700.000000" preserveAspectRatio="xMidYMid meet">
  <g transform="translate(0.000000,700.000000) scale(0.100000,-0.100000)" fill="#000000" stroke="none">
    <path d="M1680 6866 c-69 -16 -147 -48 -202 -82 -72 -45 -161 -145 -201 -225
-70 -140 -70 -137 -70 -782 0 -412 -3 -580 -11 -583 -6 -2 -168 -5 -361 -6
l-350 -3 -78 -28 c-180 -63 -303 -184 -373 -367 l-29 -75 0 -1390 c0 -1325 1
-1393 18 -1445 68 -201 190 -329 379 -398 l73 -27 488 -3 487 -3 -2 -659 c-2
-363 0 -660 3 -660 5 0 64 63 204 219 22 24 49 54 60 66 24 25 162 177 201
220 15 17 50 55 78 86 73 79 208 228 228 251 9 10 51 57 93 103 42 45 91 99
108 118 18 20 77 85 132 146 l100 110 1303 1 c1161 0 1311 2 1375 16 168 38
321 159 395 314 22 47 46 112 52 145 9 43 13 228 14 635 l1 575 342 2 c402 2
435 7 591 97 93 54 195 185 241 309 l26 72 0 1380 c0 759 -3 1391 -7 1405 -4
14 -9 35 -12 46 -29 134 -154 289 -289 360 -143 75 97 69 -2562 71 -1885 1
-2402 -1 -2445 -11z"/>
  </g>
</svg>
